<svg width="949" height="210" viewBox="0 0 949 210" fill="none" xmlns="http://www.w3.org/2000/svg">
<path d="M32.9766 63.5796L31.9744 62.4635L32.9766 63.5796ZM123.957 63.5796L122.954 64.6957L122.96 64.7007L122.966 64.7057L123.957 63.5796ZM126.508 97.832L125.214 97.0743L125.207 97.0861L125.2 97.0982L126.508 97.832ZM115.418 107.352L116.196 108.634L116.203 108.63L116.21 108.626L115.418 107.352ZM54.4702 144.353L53.6918 143.07L49.1089 145.853H54.4702V144.353ZM114.731 144.353V145.853H116.231V144.353H114.731ZM114.731 129.042L115.138 127.598L113.231 127.06V129.042H114.731ZM133.869 134.44H135.369V133.304L134.276 132.996L133.869 134.44ZM128.962 158.682L127.971 157.556L127.965 157.561L127.96 157.566L128.962 158.682ZM22.8677 163H21.3677V164.5H22.8677V163ZM25.7139 142.979L24.5365 142.049L24.5289 142.059L24.5214 142.069L25.7139 142.979ZM36.019 134.636L35.2327 133.359L35.2225 133.365L36.019 134.636ZM107.763 90.4712L108.549 91.7486L109.263 91.3092V90.4712H107.763ZM107.763 76.9272H109.263V75.4272H107.763V76.9272ZM48.6797 76.9272V75.4272H47.1797V76.9272H48.6797ZM48.6797 98.3228L48.3045 99.7751L50.1797 100.26V98.3228H48.6797ZM28.1675 93.0229H26.6675V94.1846L27.7922 94.4753L28.1675 93.0229ZM29.6675 79.5771C29.6675 71.8984 31.2671 67.1306 33.9788 64.6957L31.9744 62.4635C28.2739 65.7864 26.6675 71.6836 26.6675 79.5771H29.6675ZM33.9788 64.6957C35.3213 63.4901 37.421 62.4918 40.4271 61.8029C43.4207 61.1169 47.209 60.7612 51.8203 60.7612V57.7612C47.0752 57.7612 43.0446 58.1253 39.757 58.8787C36.4818 59.6293 33.8379 60.7902 31.9744 62.4635L33.9788 64.6957ZM51.8203 60.7612H105.113V57.7612H51.8203V60.7612ZM105.113 60.7612C109.724 60.7612 113.512 61.1169 116.506 61.8029C119.512 62.4918 121.612 63.4901 122.954 64.6957L124.959 62.4635C123.095 60.7902 120.451 59.6293 117.176 58.8787C113.888 58.1253 109.858 57.7612 105.113 57.7612V60.7612ZM122.966 64.7057C125.734 67.142 127.364 71.9052 127.364 79.5771H130.364C130.364 71.6769 128.722 65.775 124.947 62.4535L122.966 64.7057ZM127.364 79.5771V86.251H130.364V79.5771H127.364ZM127.364 86.251C127.364 91.1712 126.59 94.7226 125.214 97.0743L127.803 98.5898C129.567 95.5762 130.364 91.4069 130.364 86.251H127.364ZM125.2 97.0982C123.899 99.4169 120.506 102.42 114.626 106.078L116.21 108.626C122.108 104.956 126.108 101.612 127.817 98.5659L125.2 97.0982ZM114.64 106.07L53.6918 143.07L55.2486 145.635L116.196 108.634L114.64 106.07ZM54.4702 145.853H114.731V142.853H54.4702V145.853ZM116.231 144.353V129.042H113.231V144.353H116.231ZM114.324 130.486L133.462 135.884L134.276 132.996L115.138 127.598L114.324 130.486ZM132.369 134.44V142.684H135.369V134.44H132.369ZM132.369 142.684C132.369 150.356 130.74 155.119 127.971 157.556L129.953 159.808C133.727 156.486 135.369 150.584 135.369 142.684H132.369ZM127.96 157.566C126.617 158.771 124.517 159.769 121.511 160.458C118.518 161.144 114.729 161.5 110.118 161.5V164.5C114.863 164.5 118.894 164.136 122.182 163.383C125.457 162.632 128.101 161.471 129.964 159.798L127.96 157.566ZM110.118 161.5H22.8677V164.5H110.118V161.5ZM24.3677 163V153.578H21.3677V163H24.3677ZM24.3677 153.578C24.3677 149.18 25.2821 146.017 26.9063 143.889L24.5214 142.069C22.3507 144.913 21.3677 148.816 21.3677 153.578H24.3677ZM26.8912 143.908C28.6933 141.625 31.9541 138.954 36.8156 135.907L35.2225 133.365C30.2695 136.469 26.6602 139.359 24.5365 142.049L26.8912 143.908ZM36.8054 135.914L108.549 91.7486L106.976 89.1938L35.2327 133.359L36.8054 135.914ZM109.263 90.4712V76.9272H106.263V90.4712H109.263ZM107.763 75.4272H48.6797V78.4272H107.763V75.4272ZM47.1797 76.9272V98.3228H50.1797V76.9272H47.1797ZM49.0549 96.8704L28.5427 91.5706L27.7922 94.4753L48.3045 99.7751L49.0549 96.8704ZM29.6675 93.0229V79.5771H26.6675V93.0229H29.6675ZM166.159 163L165.056 161.983L162.734 164.5H166.159V163ZM215.329 109.708L216.432 110.725L217.405 109.67L216.394 108.651L215.329 109.708ZM165.275 59.2612V57.7612H161.674L164.211 60.3177L165.275 59.2612ZM197.271 59.2612L198.363 58.233L197.918 57.7612H197.271V59.2612ZM230.443 94.4951L229.351 95.5234L230.472 96.7136L231.562 95.4949L230.443 94.4951ZM261.948 59.2612V57.7612H261.277L260.83 58.2614L261.948 59.2612ZM289.723 59.2612L290.811 60.2935L293.213 57.7612H289.723V59.2612ZM244.478 106.959L243.39 105.927L242.385 106.986L243.416 108.019L244.478 106.959ZM300.42 163V164.5H304.037L301.482 161.94L300.42 163ZM267.64 163L266.549 164.03L266.993 164.5H267.64V163ZM229.658 122.761L230.749 121.731L229.613 120.528L228.527 121.776L229.658 122.761ZM194.621 163V164.5H195.303L195.752 163.985L194.621 163ZM167.261 164.017L216.432 110.725L214.227 108.69L165.056 161.983L167.261 164.017ZM216.394 108.651L166.34 58.2047L164.211 60.3177L214.264 110.764L216.394 108.651ZM165.275 60.7612H197.271V57.7612H165.275V60.7612ZM196.178 60.2895L229.351 95.5234L231.535 93.4669L198.363 58.233L196.178 60.2895ZM231.562 95.4949L263.066 60.2611L260.83 58.2614L229.325 93.4953L231.562 95.4949ZM261.948 60.7612H289.723V57.7612H261.948V60.7612ZM288.634 58.2289L243.39 105.927L245.566 107.992L290.811 60.2935L288.634 58.2289ZM243.416 108.019L299.359 164.06L301.482 161.94L245.54 105.9L243.416 108.019ZM300.42 161.5H267.64V164.5H300.42V161.5ZM268.731 161.97L230.749 121.731L228.567 123.79L266.549 164.03L268.731 161.97ZM228.527 121.776L193.489 162.015L195.752 163.985L230.789 123.746L228.527 121.776ZM194.621 161.5H166.159V164.5H194.621V161.5Z" fill="white"/>
<path d="M413.553 77.8105H348.483V143.469H413.553V121.19L437.697 126.196V138.464C437.697 147.951 435.897 154.429 432.299 157.896C428.766 161.299 421.994 163 411.983 163H350.054C339.978 163 333.173 161.299 329.64 157.896C326.106 154.429 324.34 147.951 324.34 138.464V83.7974C324.34 74.3755 326.106 67.9307 329.64 64.4629C333.173 60.9951 339.978 59.2612 350.054 59.2612H411.983C421.994 59.2612 428.766 60.9951 432.299 64.4629C435.897 67.9307 437.697 74.3755 437.697 83.7974V93.6118L413.553 97.4395V77.8105ZM510.52 121.583H555.961L533.584 79.3809L510.52 121.583ZM464.098 163L522.788 59.2612H546.048L605.524 163H578.436L565.972 140.329H500.215L488.143 163H464.098ZM725.358 77.418H657.442V99.6968H722.12C732.261 99.6968 739.099 101.431 742.632 104.898C746.23 108.366 748.03 114.811 748.03 124.233V138.464C748.03 147.886 746.23 154.331 742.632 157.798C739.099 161.266 732.261 163 722.12 163H658.031C647.89 163 641.02 161.266 637.421 157.798C633.888 154.331 632.121 147.886 632.121 138.464V135.618L653.418 131.201V143.469H726.732V119.816H662.055C651.979 119.816 645.174 118.083 641.641 114.615C638.108 111.147 636.341 104.702 636.341 95.2803V83.7974C636.341 74.3755 638.108 67.9307 641.641 64.4629C645.174 60.9951 651.979 59.2612 662.055 59.2612H720.942C730.691 59.2612 737.397 60.9297 741.062 64.2666C744.791 67.6035 746.656 73.5249 746.656 82.0308V84.1899L725.358 89.1953V77.418ZM798.182 163V59.2612H822.325V99.5005H897.7V59.2612H922.04V163H897.7V118.344H822.325V163H798.182Z" fill="white"/>
</svg>
