<svg width="465" height="326" viewBox="0 0 465 326" fill="none" xmlns="http://www.w3.org/2000/svg">
<path d="M51.0234 98.1704L50.0212 97.0543L51.0234 98.1704ZM191.793 98.1704L190.791 99.2865L190.797 99.2915L190.803 99.2965L191.793 98.1704ZM195.742 151.168L194.447 150.41L194.44 150.422L194.433 150.434L195.742 151.168ZM178.582 165.898L179.36 167.18L179.367 167.176L179.374 167.172L178.582 165.898ZM84.2798 223.147L83.5014 221.865L78.9185 224.647H84.2798V223.147ZM177.519 223.147V224.647H179.019V223.147H177.519ZM177.519 199.458L177.926 198.014L176.019 197.476V199.458H177.519ZM207.131 207.81H208.631V206.675L207.538 206.366L207.131 207.81ZM199.538 245.318L198.547 244.192L198.541 244.197L198.536 244.202L199.538 245.318ZM35.3823 252H33.8823V253.5H35.3823V252ZM39.7861 221.021L38.6088 220.092L38.6012 220.102L38.5937 220.111L39.7861 221.021ZM55.731 208.114L54.9446 206.836L54.9344 206.843L55.731 208.114ZM166.737 139.779L167.524 141.056L168.237 140.617V139.779H166.737ZM166.737 118.823H168.237V117.323H166.737V118.823ZM75.3203 118.823V117.323H73.8203V118.823H75.3203ZM75.3203 151.927L74.9451 153.38L76.8203 153.864V151.927H75.3203ZM43.5825 143.727H42.0825V144.889L43.2073 145.179L43.5825 143.727ZM45.0825 122.923C45.0825 110.983 47.5594 103.297 52.0256 99.2865L50.0212 97.0543C44.5662 101.953 42.0825 110.768 42.0825 122.923H45.0825ZM52.0256 99.2865C54.2455 97.2932 57.6432 95.704 62.368 94.6213C67.0804 93.5414 73.0082 92.9888 80.1797 92.9888V89.9888C72.8743 89.9888 66.7043 90.5498 61.6979 91.6971C56.704 92.8415 52.762 94.5932 50.0212 97.0543L52.0256 99.2865ZM80.1797 92.9888H162.637V89.9888H80.1797V92.9888ZM162.637 92.9888C169.809 92.9888 175.737 93.5414 180.449 94.6213C185.174 95.704 188.571 97.2932 190.791 99.2865L192.796 97.0543C190.055 94.5932 186.113 92.8415 181.119 91.6971C176.113 90.5498 169.943 89.9888 162.637 89.9888V92.9888ZM190.803 99.2965C195.361 103.308 197.886 110.99 197.886 122.923H200.886C200.886 110.762 198.349 101.941 192.784 97.0443L190.803 99.2965ZM197.886 122.923V133.249H200.886V122.923H197.886ZM197.886 133.249C197.886 140.926 196.683 146.59 194.447 150.41L197.036 151.926C199.66 147.444 200.886 141.162 200.886 133.249H197.886ZM194.433 150.434C192.309 154.221 186.892 158.96 177.79 164.624L179.374 167.172C188.494 161.497 194.517 156.416 197.05 151.902L194.433 150.434ZM177.804 164.616L83.5014 221.865L85.0582 224.43L179.36 167.18L177.804 164.616ZM84.2798 224.647H177.519V221.647H84.2798V224.647ZM179.019 223.147V199.458H176.019V223.147H179.019ZM177.112 200.902L206.724 209.254L207.538 206.366L177.926 198.014L177.112 200.902ZM205.631 207.81V220.566H208.631V207.81H205.631ZM205.631 220.566C205.631 232.499 203.106 240.18 198.547 244.192L200.529 246.444C206.094 241.547 208.631 232.727 208.631 220.566H205.631ZM198.536 244.202C196.316 246.196 192.918 247.785 188.193 248.867C183.481 249.947 177.553 250.5 170.382 250.5V253.5C177.687 253.5 183.857 252.939 188.864 251.792C193.858 250.647 197.8 248.896 200.54 246.434L198.536 244.202ZM170.382 250.5H35.3823V253.5H170.382V250.5ZM36.8823 252V237.422H33.8823V252H36.8823ZM36.8823 237.422C36.8823 230.517 38.3159 225.42 40.9786 221.931L38.5937 220.111C35.3846 224.317 33.8823 230.153 33.8823 237.422H36.8823ZM40.9635 221.951C43.8398 218.308 48.9805 214.114 56.5275 209.385L54.9344 206.843C47.2959 211.63 41.8067 216.041 38.6088 220.092L40.9635 221.951ZM56.5173 209.391L167.524 141.056L165.951 138.501L54.9446 206.836L56.5173 209.391ZM168.237 139.779V118.823H165.237V139.779H168.237ZM166.737 117.323H75.3203V120.323H166.737V117.323ZM73.8203 118.823V151.927H76.8203V118.823H73.8203ZM75.6955 150.475L43.9578 142.275L43.2073 145.179L74.9451 153.38L75.6955 150.475ZM45.0825 143.727V122.923H42.0825V143.727H45.0825ZM257.091 252L255.989 250.983L253.666 253.5H257.091V252ZM333.171 169.542L334.273 170.56L335.247 169.505L334.236 168.486L333.171 169.542ZM255.725 91.4888V89.9888H252.123L254.66 92.5453L255.725 91.4888ZM305.229 91.4888L306.322 90.4605L305.877 89.9888H305.229V91.4888ZM356.557 146.005L355.465 147.033L356.585 148.223L357.675 147.005L356.557 146.005ZM405.302 91.4888V89.9888H404.631L404.184 90.4889L405.302 91.4888ZM448.277 91.4888L449.366 92.5211L451.768 89.9888H448.277V91.4888ZM378.272 165.291L377.184 164.258L376.179 165.317L377.21 166.35L378.272 165.291ZM464.83 252V253.5H468.446L465.891 250.94L464.83 252ZM414.11 252L413.019 253.03L413.463 253.5H414.11V252ZM355.342 189.739L356.433 188.71L355.297 187.507L354.211 188.754L355.342 189.739ZM301.129 252V253.5H301.812L302.261 252.985L301.129 252ZM258.194 253.017L334.273 170.56L332.068 168.525L255.989 250.983L258.194 253.017ZM334.236 168.486L256.789 90.4323L254.66 92.5453L332.106 170.599L334.236 168.486ZM255.725 92.9888H305.229V89.9888H255.725V92.9888ZM304.137 92.517L355.465 147.033L357.649 144.977L306.322 90.4605L304.137 92.517ZM357.675 147.005L406.42 92.4886L404.184 90.4889L355.438 145.005L357.675 147.005ZM405.302 92.9888H448.277V89.9888H405.302V92.9888ZM447.189 90.4565L377.184 164.258L379.36 166.323L449.366 92.5211L447.189 90.4565ZM377.21 166.35L463.768 253.06L465.891 250.94L379.334 164.231L377.21 166.35ZM464.83 250.5H414.11V253.5H464.83V250.5ZM415.201 250.97L356.433 188.71L354.251 190.769L413.019 253.03L415.201 250.97ZM354.211 188.754L299.998 251.015L302.261 252.985L356.473 190.724L354.211 188.754ZM301.129 250.5H257.091V253.5H301.129V250.5Z" fill="#D9D9D9"/>
</svg>
